<?xml version="1.0" encoding="UTF-8" standalone="no"?>
<svg
   xmlns:dc="http://purl.org/dc/elements/1.1/"
   xmlns:cc="http://creativecommons.org/ns#"
   xmlns:rdf="http://www.w3.org/1999/02/22-rdf-syntax-ns#"
   xmlns:svg="http://www.w3.org/2000/svg"
   xmlns="http://www.w3.org/2000/svg"
   xmlns:xlink="http://www.w3.org/1999/xlink"
   viewBox="0 0 100 47"
   height="47"
   width="100"
   version="1.1"
   id="svg4178">
  <metadata
     id="metadata4184">
    <rdf:RDF>
      <cc:Work
         rdf:about="">
        <dc:format>image/svg+xml</dc:format>
        <dc:type
           rdf:resource="http://purl.org/dc/dcmitype/StillImage" />
        <dc:title></dc:title>
      </cc:Work>
    </rdf:RDF>
  </metadata>
  <defs
     id="defs4182" />
  <image
     xlink:href="logo.png"
     width="100"
     height="47"
     preserveAspectRatio="none"
     id="image4186"
     x="0"
     y="0" />
  <path
     id="path4188"
     d="M 0,45.802477 C 0,44.255418 2.0077332,41 2.9618596,41 c 0.4903206,0 1.0972873,0.7875 1.3488149,1.75 0.4320057,1.653121 0.4637446,1.652242 0.5733241,-0.01588 0.088374,-1.345317 0.8900303,-1.719949 3.3660014,-1.57301 1.7875,0.106082 3.8125,0.61833 4.5,1.138329 C 13.569117,42.918986 14,42.857976 14,42.122445 14,41.5051 14.675,41 15.5,41 c 0.825,0 1.506891,0.5625 1.515313,1.25 0.01011,0.824978 0.265119,0.890908 0.75,0.193901 0.404078,-0.580855 2.457746,-1.159846 4.563706,-1.286648 3.535766,-0.21289 3.78427,-0.05542 3.24473,2.0561 L 24.989459,45.5 26.147544,43.25 C 26.784491,42.0125 27.61463,41 27.992299,41 28.540195,41 31,45.362794 31,46.33456 31,46.46681 29.2,46.646793 27,46.734523 23.306868,46.881795 22.481523,46.283687 22.881579,43.75 22.946711,43.3375 22.519676,43 21.932612,43 c -0.587063,0 -0.813708,0.799274 -0.503655,1.776164 0.515578,1.624441 -0.375588,1.784026 -10.432612,1.868218 C 4.7847735,46.696381 0,46.330048 0,45.802477 Z M 32,44 c 0,-2.880503 0.175926,-3 4.416667,-3 2.59766,0 4.624398,0.514813 4.921052,1.25 0.403509,1 0.520176,1 0.583334,0 0.140578,-2.225825 2.076919,-1.321978 2.142333,1 l 0.06339,2.25 0.904389,-2.25 c 0.966917,-2.40556 2.958756,-3.073033 2.984151,-1 0.01063,0.867954 0.292975,0.811198 0.923784,-0.185698 0.7529,-1.18984 1.178393,-1.211684 2.484688,-0.127555 C 52.290703,42.656225 53,42.81275 53,42.284579 c 0,-0.52817 2.025,-1.036905 4.5,-1.130521 4.037265,-0.152707 4.50696,0.06199 4.56768,2.087866 L 62.135361,45.5 63.220495,43.25 C 63.817318,42.0125 64.618096,41 65,41 c 0.381904,0 1.215509,1.0125 1.852456,2.25 l 1.158085,2.25 -0.572658,-2.25 C 67.025595,41.630101 67.304163,41 68.432612,41 69.333333,41 70,41.850672 70,43 c 0,1.1 0.45,2 1,2 0.55,0 1,0.421695 1,0.9371 0,1.335829 -18.190851,1.04906 -19.941958,-0.314373 -1.079803,-0.840748 -1.266269,-0.82969 -0.742432,0.04403 0.955966,1.594474 -14.483303,1.565459 -15.641741,-0.0294 C 35.067148,44.802068 34.713032,44.831984 34.340536,45.75 33.399697,48.068696 32,47.022154 32,44 Z m 27.5,0 C 59.160081,43.45 58.458524,43 57.940983,43 57.423442,43 57,43.45 57,44 c 0,0.55 0.701558,1 1.559017,1 0.857459,0 1.280902,-0.45 0.940983,-1 z m 13.815435,1.379626 c -1.169956,-3.048856 1.505378,-4.12618 10.15337,-4.088637 7.738192,0.03359 8.469052,0.208962 8.846927,2.122814 0.387764,1.963935 0.419885,1.954336 0.548086,-0.163803 C 92.977534,41.371178 93.577387,41 96.5,41 c 2.757249,0 3.5,0.398444 3.5,1.877555 0,3.338608 -2.209009,3.944024 -14.32269,3.925371 -9.219157,-0.0142 -11.941426,-0.327627 -12.361875,-1.4233 z M 76.5,44 C 76.839919,43.45 76.641476,43 76.059017,43 75.476558,43 75,43.45 75,44 c 0,0.55 0.198442,1 0.440983,1 0.242541,0 0.719098,-0.45 1.059017,-1 z M 88,44 c 0,-0.55 -0.45,-1 -1,-1 -0.55,0 -1,0.45 -1,1 0,0.55 0.45,1 1,1 0.55,0 1,-0.45 1,-1 z M 16,32.043741 c 0,-0.525942 4.370225,-7.950942 9.711611,-16.5 L 35.423221,0 59.711611,0 84,0 84,5.5 84,11 80.5,11 C 77.666667,11 77,10.619048 77,9 77,7.3555556 76.333333,7 73.25,7 l -3.75,0 0,9.5 0,9.5 4,-0.160037 c 3.691691,-0.147702 3.749499,-0.191124 0.75,-0.563359 C 71.412698,24.924498 71,24.500376 71,21.936642 L 71,19 l 6.5,0 6.5,0 0,7 0,7 -11,0 -11,0 0,-6.5 0,-6.5 -5.5,0 -5.5,0 0,6.5 0,6.5 -9,0 c -6.565126,0 -8.983873,-0.338177 -8.940389,-1.25 0.03279,-0.6875 0.411445,-3.3875 0.841465,-6 C 34.331095,23.1375 34.387011,21 34.025333,21 33.663655,21 32.077255,23.7 30.5,27 l -2.867737,6 -5.816132,0 C 18.617259,33 16,32.569684 16,32.043741 Z m 17.964816,-13.978 C 35.730929,14.765729 35.103147,13.599153 33,16.272871 30.779192,19.096171 30.52816,20 31.964816,20 c 0.530649,0 1.430649,-0.870416 2,-1.934259 z M 62.001363,10.25 c 0.0013,-2.7083958 -0.08187,-2.7448176 -5.5,-2.4074503 C 51.451164,8.1570071 51,8.3825334 51,10.59255 51,12.844005 51.356383,13 56.5,13 c 5.333003,0 5.500041,-0.0835 5.501363,-2.75 z"
     style="fill:#fefefe" />
</svg>
