<?xml version="1.0" encoding="utf-8"?><svg width="190" height="190" viewBox="0 0 190 190" xmlns="http://www.w3.org/2000/svg" xmlns:xlink="http://www.w3.org/1999/xlink"><svg baseProfile="tiny" width="110" height="110" viewBox="-5 -5 110 110" id="burger"><path fill="none" d="M65 43v6H38v-6h27zM38 58v-6h27v6H38z"/><path fill-rule="evenodd" d="M65 52H38v-3h27v3zm0-9H38v-1.5c0-.167-.012-.478.002-.48.33-.026.665-.02.998-.02h26v2zM38 58h27v2H38v-2z"/></svg><svg baseProfile="tiny" width="40" height="40" viewBox="-5 -5 40 40" id="star_active" x="110" y="110"><path fill="none" d="M26 16.304c0 3.167 1.24 7.85-.31 9.12-1.988 1.63-6.226.537-9.495.57-3.333.03-8.25 1.313-9.6-.323-1.714-2.07-.553-6.54-.588-9.973-.032-3.167-1.25-7.85.304-9.12 1.99-1.63 6.227-.537 9.496-.57 3.332-.03 8.315-1.304 9.59.316 1.67 2.12.41 6.547.41 9.98.064.002.13.002.195.002zm-14.318 5.802c3.112-2.074 5.975-.574 9.338.01-1.9-3.635.34-5.622 2.355-8.103-3.567-.02-5.534-1.854-7.158-4.192-2.013 2.048-4.04 4.07-7.367 4.527 1.97 2.133 4.017 4.18 2.832 7.76z"/><path fill-rule="evenodd" fill="#F00B0F" d="M11.682 22.106c1.185-3.58-.863-5.627-2.832-7.76 3.327-.457 5.354-2.48 7.367-4.525 1.624 2.34 3.59 4.173 7.158 4.194-2.016 2.48-4.255 4.468-2.355 8.104-3.363-.585-6.226-2.085-9.338-.01z"/></svg><svg baseProfile="tiny" width="40" height="40" viewBox="-5 -5 40 40" id="star_activeHover" x="150" y="150"><path fill="none" stroke="#00EEB9" stroke-miterlimit="10" d="M26 16.305c0 3.166 1.24 7.848-.31 9.12-1.988 1.628-6.227.536-9.495.568-3.333.032-8.25 1.313-9.602-.322-1.713-2.07-.552-6.54-.587-9.974-.032-3.167-1.25-7.848.304-9.12 1.987-1.628 6.225-.536 9.494-.568 3.332-.032 8.315-1.305 9.59.315 1.67 2.12.41 6.547.41 9.98.065.003.132.003.196.003zm-14.318 5.8c3.112-2.073 5.975-.573 9.337.012-1.9-3.637.34-5.623 2.353-8.104-3.566-.02-5.534-1.854-7.158-4.192-2.013 2.048-4.04 4.07-7.367 4.527 1.97 2.133 4.017 4.18 2.832 7.76z"/><path fill="#F00B0F" stroke="#00EEB9" stroke-miterlimit="10" d="M11.682 22.105c1.185-3.58-.863-5.627-2.832-7.76 3.327-.456 5.354-2.478 7.367-4.524 1.624 2.34 3.592 4.173 7.158 4.194-2.016 2.48-4.255 4.467-2.355 8.104-3.363-.585-6.226-2.085-9.338-.012z"/></svg></svg>